<svg width="1489" height="200" viewBox="0 0 1489 200" fill="none" xmlns="http://www.w3.org/2000/svg">
<path d="M65.1685 200C98.5638 200 120.448 183.79 126.093 158.675C126.959 154.824 123.832 151.404 119.885 151.404H101.877C98.7961 151.404 96.1928 153.547 95.0201 156.396C90.6589 166.99 81.3285 172.753 65.1685 172.753C43.5393 172.753 30.618 157.865 30.618 131.18C30.618 104.494 43.5393 89.6067 65.1685 89.6067C81.4514 89.6067 90.8004 95.6738 95.1187 107.237C96.2118 110.164 98.8476 112.36 101.972 112.36H119.905C123.844 112.36 126.967 108.952 126.141 105.1C120.572 79.1344 98.6588 62.3596 65.1685 62.3596C24.4382 62.3596 0 90.4494 0 131.18C0 171.91 24.4382 200 65.1685 200Z" fill="black"/>
<path d="M224.561 62.3596C205.179 62.3596 190.011 69.9438 181.864 83.9888V6.68806C181.864 2.99434 178.87 0 175.176 0H157.935C154.241 0 151.246 2.99435 151.246 6.68807V189.941C151.246 193.635 154.241 196.629 157.935 196.629H175.176C178.87 196.629 181.864 193.635 181.864 189.941V124.719C181.864 101.685 193.1 88.4831 213.044 88.4831C234.393 88.4831 241.696 100.562 241.696 128.371V189.941C241.696 193.635 244.69 196.629 248.384 196.629H265.626C269.32 196.629 272.314 193.635 272.314 189.941V114.326C272.314 80.0562 256.022 62.3596 224.561 62.3596Z" fill="black"/>
<path d="M359.226 200C375.237 200 393.214 192.135 401.361 178.933V189.941C401.361 193.635 404.355 196.629 408.049 196.629H425.01C428.703 196.629 431.698 193.635 431.698 189.941V72.4184C431.698 68.7247 428.703 65.7303 425.01 65.7303H408.049C404.355 65.7303 401.361 68.7247 401.361 72.4184V83.427C393.214 70.2247 377.484 62.3596 360.068 62.3596C319.338 62.3596 294.9 92.6966 294.9 131.18C294.9 169.663 317.091 200 359.226 200ZM363.72 172.753C339.844 172.753 325.518 155.056 325.518 131.18C325.518 107.303 339.844 89.6067 363.72 89.6067C389.844 89.6067 402.484 108.708 402.484 131.18C402.484 153.652 389.844 172.753 363.72 172.753Z" fill="black"/>
<path d="M524.618 170.787C512.539 170.787 505.517 167.978 505.517 145.225V91.2921H528.885C532.579 91.2921 535.573 88.2978 535.573 84.6041V72.4184C535.573 68.7247 532.579 65.7303 528.885 65.7303H505.517V32.8117C505.517 29.1179 502.523 26.1236 498.829 26.1236H481.587C477.893 26.1236 474.899 29.1179 474.899 32.8117V65.7303H459.396C455.702 65.7303 452.708 68.7247 452.708 72.4184V84.6041C452.708 88.2978 455.702 91.2921 459.396 91.2921H474.899V152.247C474.899 196.348 502.427 198.315 517.315 198.315C523.505 198.315 529.695 197.915 534.51 197.391C537.736 197.04 540.068 194.263 540.068 191.018V177.677C540.068 173.504 536.264 170.217 532.101 170.497C529.481 170.673 526.766 170.787 524.618 170.787Z" fill="black"/>
<path d="M621.868 170.787C609.79 170.787 602.767 167.978 602.767 145.225V91.2921H626.135C629.829 91.2921 632.823 88.2978 632.823 84.6041V72.4184C632.823 68.7247 629.829 65.7303 626.135 65.7303H602.767V32.8117C602.767 29.1179 599.773 26.1236 596.079 26.1236H578.837C575.144 26.1236 572.149 29.1179 572.149 32.8117V65.7303H556.646C552.953 65.7303 549.958 68.7247 549.958 72.4184V84.6041C549.958 88.2978 552.953 91.2921 556.646 91.2921H572.149V152.247C572.149 196.348 599.677 198.315 614.565 198.315C620.755 198.315 626.946 197.915 631.76 197.391C634.986 197.04 637.318 194.263 637.318 191.018V177.677C637.318 173.504 633.514 170.217 629.351 170.497C626.732 170.673 624.016 170.787 621.868 170.787Z" fill="black"/>
<path d="M777.017 124.438C777.017 87.6404 751.736 62.3596 714.376 62.3596C674.489 62.3596 648.646 89.3258 648.646 131.18C648.646 173.595 674.208 200 715.5 200C743.59 200 766.306 186.34 773.65 166.018C775.049 162.146 771.88 158.427 767.762 158.427H748.847C746.313 158.427 744.06 159.903 742.617 161.986C737.302 169.664 728.763 173.315 715.5 173.315C693.309 173.315 679.826 162.079 678.983 141.292H769.981C773.475 141.292 776.394 138.602 776.625 135.114C776.886 131.189 777.017 128.074 777.017 124.438ZM678.983 117.978C679.264 99.4382 692.185 86.5169 713.814 86.5169C734.882 86.5169 746.68 97.7528 746.96 117.978H678.983Z" fill="black"/>
<path d="M824.919 196.629C828.613 196.629 831.608 193.635 831.608 189.941V138.764C831.608 108.989 844.81 92.6966 866.439 92.6966C868.195 92.6966 869.647 92.6966 871.019 92.7246C875.022 92.8061 878.518 89.7408 878.518 85.7374V70.3904C878.518 67.3215 876.425 64.615 873.37 64.3241C871.269 64.124 868.972 64.0449 866.439 64.0449C852.113 64.0449 836.383 72.4719 831.608 91.0112V72.4184C831.608 68.7247 828.613 65.7303 824.919 65.7303H807.678C803.984 65.7303 800.99 68.7247 800.99 72.4184V189.941C800.99 193.635 803.984 196.629 807.678 196.629H824.919Z" fill="black"/>
<path d="M972.678 62.3596C954.139 62.3596 936.723 70.7865 928.577 83.427V6.68807C928.577 2.99435 925.583 0 921.889 0H904.928C901.234 0 898.24 2.99435 898.24 6.68807V189.941C898.24 193.635 901.234 196.629 904.928 196.629H921.889C925.583 196.629 928.577 193.635 928.577 189.941V178.933C936.723 191.573 953.296 200 970.712 200C1008.63 200 1035.04 171.629 1035.04 131.18C1035.04 89.8876 1010.04 62.3596 972.678 62.3596ZM966.217 172.753C943.184 172.753 927.453 155.899 927.453 131.18C927.453 106.461 943.184 89.6067 966.217 89.6067C988.689 89.6067 1004.42 106.742 1004.42 131.18C1004.42 155.618 988.689 172.753 966.217 172.753Z" fill="black"/>
<path d="M1118.13 200C1161.39 200 1187.23 169.663 1187.23 131.18C1187.23 92.6966 1161.39 62.3596 1118.13 62.3596C1074.87 62.3596 1049.03 92.6966 1049.03 131.18C1049.03 169.663 1074.87 200 1118.13 200ZM1118.13 172.753C1093.41 172.753 1079.64 155.056 1079.64 131.18C1079.64 107.303 1093.41 89.6067 1118.13 89.6067C1142.85 89.6067 1156.61 107.303 1156.61 131.18C1156.61 155.056 1142.85 172.753 1118.13 172.753Z" fill="black"/>
<path d="M1268.87 170.787C1256.79 170.787 1249.77 167.978 1249.77 145.225V91.2921H1273.14C1276.83 91.2921 1279.82 88.2978 1279.82 84.6041V72.4184C1279.82 68.7247 1276.83 65.7303 1273.14 65.7303H1249.77V32.8117C1249.77 29.1179 1246.77 26.1236 1243.08 26.1236H1225.84C1222.14 26.1236 1219.15 29.1179 1219.15 32.8117V65.7303H1203.65C1199.95 65.7303 1196.96 68.7247 1196.96 72.4184V84.6041C1196.96 88.2978 1199.95 91.2921 1203.65 91.2921H1219.15V152.247C1219.15 196.348 1246.68 198.315 1261.56 198.315C1267.76 198.315 1273.95 197.915 1278.76 197.391C1281.99 197.04 1284.32 194.263 1284.32 191.018V177.677C1284.32 173.504 1280.51 170.217 1276.35 170.497C1273.73 170.673 1271.02 170.787 1268.87 170.787Z" fill="black"/>
<path d="M1354.53 179.908C1354.53 189.142 1347.05 196.628 1337.81 196.628C1328.58 196.628 1321.09 189.142 1321.09 179.908C1321.09 170.673 1328.58 163.188 1337.81 163.188C1347.05 163.188 1354.53 170.673 1354.53 179.908Z" fill="black"/>
<path d="M1421.42 146.468C1421.42 155.703 1413.93 163.188 1404.7 163.188C1395.46 163.188 1387.98 155.703 1387.98 146.468C1387.98 137.234 1395.46 129.748 1404.7 129.748C1413.93 129.748 1421.42 137.234 1421.42 146.468Z" fill="black"/>
<path d="M1488.3 166.534C1488.3 175.768 1480.81 183.254 1471.58 183.254C1462.34 183.254 1454.86 175.768 1454.86 166.534C1454.86 157.299 1462.34 149.813 1471.58 149.813C1480.81 149.813 1488.3 157.299 1488.3 166.534Z" fill="black"/>
</svg>
