<svg width="591" height="200" viewBox="0 0 591 200" fill="none" xmlns="http://www.w3.org/2000/svg">
<path d="M74.678 62.3596C56.1387 62.3596 38.7229 70.7865 30.5768 83.427V6.68807C30.5768 2.99435 27.5825 0 23.8888 0H6.92792C3.2342 0 0.239807 2.99435 0.239807 6.68807V189.941C0.239807 193.635 3.2342 196.629 6.92792 196.629H23.8888C27.5825 196.629 30.5768 193.635 30.5768 189.941V178.933C38.7229 191.573 55.296 200 72.7117 200C110.633 200 137.037 171.629 137.037 131.18C137.037 89.8876 112.038 62.3596 74.678 62.3596ZM68.2173 172.753C45.1836 172.753 29.4533 155.899 29.4533 131.18C29.4533 106.461 45.1836 89.6067 68.2173 89.6067C90.6893 89.6067 106.42 106.742 106.42 131.18C106.42 155.618 90.6893 172.753 68.2173 172.753Z" fill="black"/>
<path d="M220.127 200C263.385 200 289.228 169.663 289.228 131.18C289.228 92.6966 263.385 62.3596 220.127 62.3596C176.868 62.3596 151.026 92.6966 151.026 131.18C151.026 169.663 176.868 200 220.127 200ZM220.127 172.753C195.407 172.753 181.643 155.056 181.643 131.18C181.643 107.303 195.407 89.6067 220.127 89.6067C244.846 89.6067 258.61 107.303 258.61 131.18C258.61 155.056 244.846 172.753 220.127 172.753Z" fill="black"/>
<path d="M370.868 170.787C358.79 170.787 351.767 167.978 351.767 145.225V91.2921H375.135C378.829 91.2921 381.823 88.2978 381.823 84.6041V72.4184C381.823 68.7247 378.829 65.7303 375.135 65.7303H351.767V32.8117C351.767 29.1179 348.773 26.1236 345.079 26.1236H327.837C324.144 26.1236 321.149 29.1179 321.149 32.8117V65.7303H305.646C301.953 65.7303 298.958 68.7247 298.958 72.4184V84.6041C298.958 88.2978 301.953 91.2921 305.646 91.2921H321.149V152.247C321.149 196.348 348.677 198.315 363.565 198.315C369.755 198.315 375.946 197.915 380.76 197.391C383.986 197.04 386.318 194.263 386.318 191.018V177.677C386.318 173.504 382.514 170.217 378.351 170.497C375.732 170.673 373.016 170.787 370.868 170.787Z" fill="black"/>
<path d="M456.535 179.908C456.535 189.142 449.049 196.628 439.814 196.628C430.58 196.628 423.094 189.142 423.094 179.908C423.094 170.673 430.58 163.188 439.814 163.188C449.049 163.188 456.535 170.673 456.535 179.908Z" fill="black"/>
<path d="M523.415 146.468C523.415 155.703 515.93 163.188 506.695 163.188C497.461 163.188 489.975 155.703 489.975 146.468C489.975 137.234 497.461 129.748 506.695 129.748C515.93 129.748 523.415 137.234 523.415 146.468Z" fill="black"/>
<path d="M590.296 166.534C590.296 175.768 582.81 183.254 573.576 183.254C564.341 183.254 556.855 175.768 556.855 166.534C556.855 157.299 564.341 149.813 573.576 149.813C582.81 149.813 590.296 157.299 590.296 166.534Z" fill="black"/>
</svg>
